<svg width="22" height="22" viewBox="0 0 22 22" fill="none" xmlns="http://www.w3.org/2000/svg">
<path d="M20.1667 7.58081V3.87748C20.1667 2.41998 19.58 1.83331 18.1225 1.83331H14.4192C12.9617 1.83331 12.375 2.41998 12.375 3.87748V7.58081C12.375 9.03831 12.9617 9.62498 14.4192 9.62498H18.1225C19.58 9.62498 20.1667 9.03831 20.1667 7.58081Z" stroke="#0D2862" stroke-width="1.5" stroke-linecap="round" stroke-linejoin="round"/>
<path d="M9.62492 7.80998V3.64831C9.62492 2.35581 9.03825 1.83331 7.58075 1.83331H3.87742C2.41992 1.83331 1.83325 2.35581 1.83325 3.64831V7.80081C1.83325 9.10248 2.41992 9.61581 3.87742 9.61581H7.58075C9.03825 9.62498 9.62492 9.10248 9.62492 7.80998Z" stroke="#0D2862" stroke-width="1.5" stroke-linecap="round" stroke-linejoin="round"/>
<path d="M9.62492 18.1225V14.4192C9.62492 12.9617 9.03825 12.375 7.58075 12.375H3.87742C2.41992 12.375 1.83325 12.9617 1.83325 14.4192V18.1225C1.83325 19.58 2.41992 20.1667 3.87742 20.1667H7.58075C9.03825 20.1667 9.62492 19.58 9.62492 18.1225Z" stroke="#0D2862" stroke-width="1.5" stroke-linecap="round" stroke-linejoin="round"/>
<path opacity="0.4" d="M13.75 14.2083H19.25" stroke="#0D2862" stroke-width="1.5" stroke-linecap="round"/>
<path opacity="0.4" d="M13.75 17.875H19.25" stroke="#0D2862" stroke-width="1.5" stroke-linecap="round"/>
</svg>
