<svg width="22" height="22" viewBox="0 0 22 22" fill="none" xmlns="http://www.w3.org/2000/svg">
<path d="M15.9316 9.51499V12.4758C15.9316 14.9416 14.9416 15.9317 12.4757 15.9317H9.51492C7.04908 15.9317 6.05908 14.9416 6.05908 12.4758V9.51499C6.05908 7.04916 7.04908 6.05914 9.51492 6.05914H12.4757C14.9507 6.06831 15.9316 7.04916 15.9316 9.51499Z" stroke="#0D2862" stroke-width="1.5" stroke-linecap="round" stroke-linejoin="round"/>
<path opacity="0.4" d="M20.1667 5.28914V8.24998C20.1667 10.7158 19.1767 11.7058 16.7109 11.7058H15.9317V9.52416C15.9317 7.05833 14.9417 6.06831 12.4759 6.06831H10.2942V5.28914C10.2942 2.8233 11.2842 1.83331 13.75 1.83331H16.7109C19.1767 1.83331 20.1667 2.8233 20.1667 5.28914Z" stroke="#0D2862" stroke-width="1.5" stroke-linecap="round" stroke-linejoin="round"/>
<path opacity="0.4" d="M1.83325 16.7109V13.75C1.83325 11.2842 2.82325 10.2942 5.28909 10.2942H6.06825V12.4758C6.06825 14.9417 7.05825 15.9317 9.52408 15.9317H11.7058V16.7109C11.7058 19.1767 10.7158 20.1667 8.24992 20.1667H5.28909C2.82325 20.1667 1.83325 19.1767 1.83325 16.7109Z" stroke="#0D2862" stroke-width="1.5" stroke-linecap="round" stroke-linejoin="round"/>
</svg>
