<svg width="20" height="20" viewBox="0 0 20 20" fill="none" xmlns="http://www.w3.org/2000/svg">
<path d="M1.66675 8.33331H18.3334" stroke="#0D2862" stroke-width="1.5" stroke-miterlimit="10" stroke-linecap="round" stroke-linejoin="round"/>
<path d="M9.62487 17.0833H5.36655C2.40821 17.0833 1.6582 16.35 1.6582 13.425V6.57499C1.6582 3.92499 2.27489 3.07499 4.59989 2.94166C4.83323 2.93332 5.09155 2.92499 5.36655 2.92499H14.6249C17.5832 2.92499 18.3332 3.65832 18.3332 6.58332V10.2583" stroke="#0D2862" stroke-width="1.5" stroke-linecap="round" stroke-linejoin="round"/>
<path opacity="0.4" d="M5 13.3333H8.33333" stroke="#0D2862" stroke-width="1.5" stroke-miterlimit="10" stroke-linecap="round" stroke-linejoin="round"/>
<path opacity="0.4" d="M18.3334 15C18.3334 15.625 18.1584 16.2167 17.8501 16.7167C17.2751 17.6834 16.2167 18.3334 15.0001 18.3334C13.7834 18.3334 12.7251 17.6834 12.1501 16.7167C11.8418 16.2167 11.6667 15.625 11.6667 15C11.6667 13.1584 13.1584 11.6667 15.0001 11.6667C16.8417 11.6667 18.3334 13.1584 18.3334 15Z" stroke="#0D2862" stroke-width="1.5" stroke-miterlimit="10" stroke-linecap="round" stroke-linejoin="round"/>
<path opacity="0.4" d="M13.7 15L14.5249 15.825L16.2999 14.1833" stroke="#0D2862" stroke-width="1.5" stroke-linecap="round" stroke-linejoin="round"/>
</svg>
