<svg width="236" height="53" viewBox="0 0 236 53" fill="none" xmlns="http://www.w3.org/2000/svg">
<path d="M102.49 47.6959C96.5792 47.7348 94.574 46.8976 92.0218 44.9107C89.4697 42.9237 88.2826 39.757 88.0699 35.7229H96.145C96.5035 39.8748 98.8065 41.4883 102.668 41.4649C105.67 41.4558 108.364 40.7451 108.047 37.727C107.837 34.585 103.069 35.1008 96.8807 32.481C92.5446 31.1905 88.3922 27.7475 88.7511 22.3741C89.2976 15.0704 95.8634 12.3642 102.027 12.337C109.382 12.3311 114.999 15.935 115.099 23.4736L107.15 23.3633C107.114 18.9179 102.194 18.9036 101.586 18.8956C98.3887 18.7909 96.8063 20.5211 96.8829 21.9053C96.9143 24.5377 100.148 25.2509 103.311 26.2632C109.254 28.1505 116.228 29.2763 116.267 37.2341C116.206 40.4054 115.331 42.7487 112.678 44.8731C110.63 46.4737 107.151 47.672 102.49 47.6959Z" fill="#C7002B"/>
<path d="M0 13.7784H8.61665V47.1718H0V13.7784Z" fill="#C7002B"/>
<path d="M12.2615 13.7784H38.0005V20.5743H20.6316V26.8303H38.0005V33.4584H20.6316V40.3074H38.0005V47.1718H12.2615V13.7784Z" fill="#C7002B"/>
<path d="M41.3152 13.7784H49.8212V39.9981H65.5076V47.1718H41.3152V13.7784Z" fill="#C7002B"/>
<path d="M59.2588 13.7784H86.9888V20.5743H77.3809V47.1718H68.9057V20.5743H59.2588V13.7784Z" fill="#C7002B"/>
<path d="M123.874 12.197C123.874 12.197 130.955 3.10715 141.048 7.75396L144.426 4.45228L130.223 0.987549L119.804 12.197H123.874Z" fill="#055AAB"/>
<path d="M126.805 14.6022L125.95 11.912C125.95 11.912 129.002 7.46897 139.055 7.91735L140.438 11.2598C140.438 11.2598 133.56 10.0777 126.805 14.6022Z" fill="#055AAB"/>
<path d="M122.45 18.6383C123.034 18.6383 123.508 18.1637 123.508 17.5782C123.508 16.9927 123.034 16.5181 122.45 16.5181C121.865 16.5181 121.392 16.9927 121.392 17.5782C121.392 18.1637 121.865 18.6383 122.45 18.6383Z" fill="#055AAB"/>
<path d="M122.653 11.7493H122.246V17.4559H122.653V11.7493Z" fill="#055AAB"/>
<path d="M145.432 23.1758C144.706 21.8445 143.707 20.8308 142.437 20.1349C141.166 19.4389 139.683 19.0909 137.989 19.0909C136.113 19.0909 134.448 19.5146 132.996 20.3618C131.543 21.209 130.409 22.4194 129.592 23.9928C128.775 25.5663 128.366 27.3818 128.366 29.4394C128.366 31.5574 128.775 33.4032 129.592 34.9767C130.439 36.5501 131.604 37.7604 133.087 38.6077C134.569 39.4549 136.294 39.8785 138.261 39.8785C140.682 39.8785 142.664 39.2431 144.207 37.9723C145.75 36.6711 146.764 34.8708 147.248 32.5711H136.355V27.7146H153.511V33.2519C153.088 35.4608 152.18 37.5032 150.788 39.3793C149.396 41.2553 147.596 42.7682 145.387 43.9181C143.208 45.0376 140.757 45.5974 138.034 45.5974C134.978 45.5974 132.209 44.9166 129.728 43.555C127.277 42.1631 125.341 40.2416 123.918 37.7907C122.526 35.3398 121.831 32.556 121.831 29.4394C121.831 26.3227 122.526 23.5389 123.918 21.088C125.341 18.6068 127.277 16.6854 129.728 15.3238C132.209 13.9319 134.963 13.2359 137.989 13.2359C141.559 13.2359 144.661 14.1134 147.293 15.8684C149.926 17.5931 151.741 20.029 152.74 23.1758H145.432ZM164.567 24.0836C165.384 22.7522 166.443 21.7083 167.744 20.9518C169.075 20.1954 170.588 19.8171 172.283 19.8171V26.4891H170.603C168.606 26.4891 167.093 26.9582 166.064 27.8962C165.066 28.8342 164.567 30.4681 164.567 32.798V45.3251H158.212V20.1802H164.567V24.0836ZM174.929 32.6619C174.929 30.1202 175.428 27.8659 176.426 25.8991C177.455 23.9323 178.832 22.4194 180.557 21.3603C182.312 20.3013 184.263 19.7718 186.412 19.7718C188.288 19.7718 189.922 20.15 191.314 20.9064C192.736 21.6629 193.87 22.6161 194.718 23.7659V20.1802H201.117V45.3251H194.718V41.6487C193.901 42.8287 192.766 43.8121 191.314 44.5989C189.891 45.3553 188.242 45.7336 186.366 45.7336C184.248 45.7336 182.312 45.1889 180.557 44.0996C178.832 43.0103 177.455 41.4822 176.426 39.5154C175.428 37.5184 174.929 35.2339 174.929 32.6619ZM194.718 32.7527C194.718 31.2095 194.415 29.8932 193.81 28.8039C193.205 27.6844 192.388 26.8371 191.359 26.2622C190.33 25.657 189.226 25.3545 188.046 25.3545C186.866 25.3545 185.776 25.6419 184.778 26.2168C183.779 26.7917 182.962 27.639 182.327 28.7585C181.722 29.8478 181.419 31.149 181.419 32.6619C181.419 34.1748 181.722 35.5062 182.327 36.656C182.962 37.7756 183.779 38.6379 184.778 39.2431C185.806 39.8483 186.896 40.1509 188.046 40.1509C189.226 40.1509 190.33 39.8634 191.359 39.2885C192.388 38.6833 193.205 37.8361 193.81 36.7468C194.415 35.6272 194.718 34.2958 194.718 32.7527ZM205.689 32.6619C205.689 30.1202 206.189 27.8659 207.187 25.8991C208.216 23.9323 209.608 22.4194 211.363 21.3603C213.118 20.3013 215.07 19.7718 217.218 19.7718C218.852 19.7718 220.41 20.1349 221.893 20.8611C223.375 21.557 224.556 22.495 225.433 23.6751V11.7381H231.878V45.3251H225.433V41.6033C224.646 42.8439 223.542 43.8424 222.12 44.5989C220.698 45.3553 219.049 45.7336 217.172 45.7336C215.054 45.7336 213.118 45.1889 211.363 44.0996C209.608 43.0103 208.216 41.4822 207.187 39.5154C206.189 37.5184 205.689 35.2339 205.689 32.6619ZM225.478 32.7527C225.478 31.2095 225.176 29.8932 224.571 28.8039C223.966 27.6844 223.149 26.8371 222.12 26.2622C221.091 25.657 219.987 25.3545 218.806 25.3545C217.626 25.3545 216.537 25.6419 215.539 26.2168C214.54 26.7917 213.723 27.639 213.088 28.7585C212.482 29.8478 212.18 31.149 212.18 32.6619C212.18 34.1748 212.482 35.5062 213.088 36.656C213.723 37.7756 214.54 38.6379 215.539 39.2431C216.567 39.8483 217.657 40.1509 218.806 40.1509C219.987 40.1509 221.091 39.8634 222.12 39.2885C223.149 38.6833 223.966 37.8361 224.571 36.7468C225.176 35.6272 225.478 34.2958 225.478 32.7527Z" fill="#055AAB"/>
</svg>
