<svg width="26" height="26" viewBox="0 0 26 26" fill="none" xmlns="http://www.w3.org/2000/svg">
<path d="M23.8333 9.23002V4.31169C23.8333 2.78419 23.14 2.16669 21.4175 2.16669H17.0408C15.3183 2.16669 14.625 2.78419 14.625 4.31169V9.21919C14.625 10.7575 15.3183 11.3642 17.0408 11.3642H21.4175C23.14 11.375 23.8333 10.7575 23.8333 9.23002Z" stroke="#292D32" stroke-width="1.5" stroke-linecap="round" stroke-linejoin="round"/>
<path opacity="0.4" d="M23.8333 21.4175V17.0408C23.8333 15.3183 23.14 14.625 21.4175 14.625H17.0408C15.3183 14.625 14.625 15.3183 14.625 17.0408V21.4175C14.625 23.14 15.3183 23.8333 17.0408 23.8333H21.4175C23.14 23.8333 23.8333 23.14 23.8333 21.4175Z" stroke="#292D32" stroke-width="1.5" stroke-linecap="round" stroke-linejoin="round"/>
<path opacity="0.4" d="M11.3748 9.23002V4.31169C11.3748 2.78419 10.6815 2.16669 8.959 2.16669H4.58234C2.85984 2.16669 2.1665 2.78419 2.1665 4.31169V9.21919C2.1665 10.7575 2.85984 11.3642 4.58234 11.3642H8.959C10.6815 11.375 11.3748 10.7575 11.3748 9.23002Z" stroke="#292D32" stroke-width="1.5" stroke-linecap="round" stroke-linejoin="round"/>
<path d="M11.3748 21.4175V17.0408C11.3748 15.3183 10.6815 14.625 8.959 14.625H4.58234C2.85984 14.625 2.1665 15.3183 2.1665 17.0408V21.4175C2.1665 23.14 2.85984 23.8333 4.58234 23.8333H8.959C10.6815 23.8333 11.3748 23.14 11.3748 21.4175Z" stroke="#292D32" stroke-width="1.5" stroke-linecap="round" stroke-linejoin="round"/>
</svg>
