<svg xmlns="http://www.w3.org/2000/svg" width="28" height="28" id="file"><circle cx="14" cy="14" r="14" fill="#ef4c45" fill-rule="evenodd"></circle><path fill="#fff" d="M10.004 6A2.006 2.006 0 0 0 8 8.004v10.992C8 20.101 8.899 21 10.004 21h7.992A2.007 2.007 0 0 0 20 18.996v-8.475c0-.023-.01-.044-.014-.066a.49.49 0 0 0-.133-.287l-4-4c-.014-.015-.034-.015-.05-.027A.502.502 0 0 0 15.457 6h-5.453zm0 1H15v2.031c0 1.097.892 1.99 1.988 1.99H19v7.975C19 19.55 18.55 20 17.996 20h-7.992C9.45 20 9 19.55 9 18.996V8.004C9 7.45 9.45 7 10.004 7zM16 7.744l2.29 2.277h-1.302a.99.99 0 0 1-.988-.99V7.744zm-1.01 8.752v1h3v-1h-3z"></path></svg>