<svg width="26" height="25" viewBox="0 0 26 25" fill="none" xmlns="http://www.w3.org/2000/svg">
<rect x="0.82373" y="0.144348" width="24.3846" height="24.3846" rx="6.09615" fill="#066AC9"/>
<g clip-path="url(#clip0_967_2049)">
<path d="M15.5557 14.8767L13.0156 12.3367L10.4756 14.8767" stroke="white" stroke-width="1.52404" stroke-linecap="round" stroke-linejoin="round"/>
<path d="M13.0156 12.3367V18.0518" stroke="white" stroke-width="1.52404" stroke-linecap="round" stroke-linejoin="round"/>
<path d="M18.3437 16.3944C18.963 16.0568 19.4523 15.5225 19.7343 14.8759C20.0163 14.2293 20.0749 13.5072 19.9009 12.8235C19.7269 12.1399 19.3302 11.5337 18.7734 11.1006C18.2166 10.6675 17.5314 10.4321 16.826 10.4316H16.0259C15.8337 9.68819 15.4754 8.99799 14.9781 8.41292C14.4807 7.82786 13.8572 7.36315 13.1544 7.05374C12.4516 6.74434 11.6878 6.59828 10.9204 6.62655C10.1531 6.65483 9.40207 6.85669 8.72394 7.21698C8.04582 7.57727 7.45819 8.08659 7.00524 8.70667C6.55229 9.32675 6.2458 10.0414 6.10882 10.797C5.97184 11.5526 6.00794 12.3294 6.21438 13.069C6.42083 13.8086 6.79227 14.4918 7.30076 15.0673" stroke="white" stroke-width="1.52404" stroke-linecap="round" stroke-linejoin="round"/>
<path d="M15.5557 14.8767L13.0156 12.3367L10.4756 14.8767" stroke="white" stroke-width="1.52404" stroke-linecap="round" stroke-linejoin="round"/>
</g>
<defs>
<clipPath id="clip0_967_2049">
<rect width="15.2404" height="15.2404" fill="white" transform="translate(5.39551 4.71649)"/>
</clipPath>
</defs>
</svg>
